####
#
# OBJ File Generated by Meshlab
#
####
# Object ArteryObjAN152-19.obj
#
# Vertices: 196
# Faces: 379
#
####
vn 1.497343 3.218843 -3.117185
v -12.879300 -25.626200 -5.058490
vn 4.016021 2.038584 -3.011563
v -12.616800 -26.012199 -5.076400
vn -0.680601 1.401425 -5.469753
v -13.021800 -26.124001 -5.264150
vn -2.750945 2.187737 -3.651760
v -13.354200 -25.722401 -5.030830
vn 5.103390 1.938600 0.588643
v -12.614800 -25.743999 -4.519370
vn -1.085455 5.399668 -0.942929
v -13.348400 -25.421900 -4.576400
vn 2.047399 4.740880 -0.606012
v -12.879600 -25.427500 -4.576400
vn 5.263922 1.752780 -0.955158
v -12.430400 -26.495100 -5.007660
vn 1.142580 2.675192 -5.122625
v -12.759900 -26.559999 -5.358490
vn 5.513578 0.579379 1.786455
v -12.537600 -26.149099 -4.576280
vn -4.363807 0.496578 -3.700383
v -13.267600 -26.610701 -5.206590
vn -4.763582 0.085608 -3.357296
v -13.413100 -26.174601 -5.025220
vn -5.616344 -0.845555 0.266179
v -13.568700 -26.012199 -4.576400
vn -3.209217 1.629720 -0.422978
v -13.647000 -25.543400 -4.576400
vn 1.595850 1.574259 2.222519
v -12.817000 -25.528000 -4.027840
vn 2.429520 -1.092189 4.703094
v -12.879600 -25.996901 -4.081280
vn -1.578770 1.560900 2.366509
v -13.405400 -25.522301 -4.034600
vn 3.098522 2.004365 -3.939591
v -12.467900 -26.966600 -5.535050
vn 5.200932 0.969366 0.126346
v -12.250200 -26.949800 -5.076400
vn 4.654119 -0.460038 3.628937
v -12.573800 -26.575300 -4.519390
vn 3.982326 -0.687335 3.904249
v -12.473800 -26.949800 -4.647020
vn -1.900915 2.015127 -4.671803
v -12.977700 -26.971600 -5.609010
vn 2.080127 -1.523792 4.995532
v -12.866000 -26.402901 -4.216180
vn -5.748194 -0.142412 -1.506529
v -13.299900 -27.054800 -5.183350
vn -4.498491 -2.098482 1.751332
v -13.351500 -26.984200 -4.689820
vn -5.785892 -1.289316 -0.103651
v -13.473800 -26.473301 -4.699140
vn -3.118699 -1.872983 3.954262
v -13.323400 -26.467800 -4.277970
vn -2.264385 -1.395920 4.518476
v -13.294300 -26.018200 -4.074620
vn 0.198202 2.241175 -5.184382
v -12.726100 -27.447201 -5.792680
vn 5.368450 1.291255 -1.859462
v -12.332900 -27.458300 -5.460070
vn 4.700933 -1.137325 2.522352
v -12.316600 -27.418600 -4.965770
vn 0.014312 -2.524472 4.907958
v -12.973100 -26.887300 -4.377740
vn -0.330774 -2.758277 4.871913
v -12.879600 -27.332899 -4.636860
vn -4.688512 0.312277 -2.370913
v -13.242800 -27.410801 -5.507130
vn -4.992030 -2.115619 2.394092
v -13.180400 -27.488001 -4.993960
vn -4.536447 0.864159 -3.529902
v -13.077600 -27.814199 -5.756430
vn -2.305512 1.852992 -4.738465
v -12.836600 -28.043800 -6.050670
vn 2.673073 2.669377 -4.235973
v -12.379800 -27.879999 -5.947820
vn 5.066502 1.539246 -0.263904
v -12.136400 -27.887400 -5.576400
vn 3.589735 -0.972417 4.040884
v -12.390500 -27.887400 -5.034520
vn -1.655435 -2.428331 4.858723
v -12.879600 -27.887400 -4.935530
vn -5.365247 -1.405773 1.222341
v -13.181100 -27.956400 -5.324170
vn -5.692150 0.032502 -0.380100
v -13.124000 -28.384399 -5.699760
vn 3.258924 1.966915 -3.403059
v -12.308900 -28.356199 -6.173690
vn -2.624905 3.087053 -4.247834
v -12.835600 -28.476601 -6.242770
vn 5.001760 -0.918145 0.411252
v -12.091300 -28.356199 -5.576400
vn 2.311595 -1.730206 4.617113
v -12.410800 -28.271999 -5.109630
vn -2.107480 -2.217228 4.274380
v -12.879600 -28.314501 -5.102110
vn -5.294837 1.171185 -0.869332
v -13.176800 -28.834801 -6.085540
vn -3.315438 -1.570664 3.771804
v -12.994900 -28.825001 -5.467540
vn 2.232038 2.351904 -4.117562
v -12.409100 -28.771299 -6.530980
vn 5.365736 0.724984 -0.253606
v -12.132600 -28.825001 -6.076400
vn 3.401402 -1.820066 3.445411
v -12.311700 -28.825001 -5.478680
vn -2.480161 2.656912 -4.216949
v -12.881700 -28.879801 -6.570530
vn -5.162121 1.358591 -2.189321
v -13.139400 -29.294300 -6.473110
vn -5.336822 -1.190253 2.062693
v -13.136000 -29.311399 -5.963350
vn -1.976715 -2.368242 4.300388
v -12.879600 -29.290899 -5.578330
vn 4.854353 0.845958 -2.961287
v -12.281500 -29.247299 -6.539950
vn -0.426424 2.607448 -5.011653
v -12.726600 -29.354900 -6.831450
vn 5.146079 -1.803068 1.666661
v -12.228700 -29.377501 -6.006130
vn 2.513694 -2.527218 4.021582
v -12.410800 -29.260300 -5.601520
vn -4.678565 2.818302 -1.973431
v -13.191700 -29.740299 -6.754130
vn -4.965949 -0.272018 2.706098
v -13.185200 -29.790400 -6.214260
vn -0.442537 -2.900020 4.759205
v -12.747000 -29.686800 -5.845350
vn 3.857287 0.741086 -3.339938
v -12.362900 -29.780399 -6.914700
vn 5.875136 -0.877830 -0.146765
v -12.247400 -29.743099 -6.476390
vn 0.360309 3.060766 -4.718796
v -12.810900 -29.851999 -7.125390
vn 3.548409 -2.548668 3.601068
v -12.429000 -29.929399 -6.099420
vn -3.468805 3.670993 -2.218750
v -13.305200 -30.071501 -7.148230
vn -4.379463 0.028428 2.508925
v -13.387400 -30.231400 -6.501710
vn -0.795740 -2.729409 4.449472
v -12.879600 -30.190001 -6.099720
vn 4.807081 -1.099210 -2.120194
v -12.459300 -30.334400 -7.011920
vn 4.324200 -2.607384 1.290743
v -12.381000 -30.302500 -6.500200
vn 2.348433 2.029021 -3.963995
v -12.821300 -30.278799 -7.455580
vn -1.818509 4.151348 -2.583433
v -13.383400 -30.404400 -7.584880
vn -5.478909 1.229409 0.817256
v -13.549500 -30.481199 -6.985580
vn -2.961974 -1.778193 4.010555
v -13.338600 -30.688801 -6.581150
vn 2.202173 -2.862740 3.593243
v -12.770900 -30.700199 -6.496530
vn 5.553975 -1.821306 -1.053695
v -12.680700 -30.795401 -7.123740
vn 4.120886 0.474586 -3.655302
v -12.915000 -30.764299 -7.660150
vn 1.888618 3.242028 -3.140529
v -13.346700 -30.719801 -8.061630
vn -3.648488 3.998672 0.729902
v -13.831200 -30.744301 -7.724070
vn -5.289616 1.481628 2.383579
v -13.666800 -30.829100 -7.279790
vn -2.915361 -2.274127 4.314619
v -13.436100 -31.169001 -6.984700
vn 2.679410 -3.208977 1.364273
v -12.848700 -31.241100 -7.000730
vn 0.834265 -2.825311 3.098448
v -12.879600 -30.961599 -6.576400
vn 5.245621 -2.017754 -1.913757
v -13.042200 -31.249599 -7.650450
vn 1.994423 2.988569 -3.977552
v -13.769600 -31.120399 -8.619530
vn -1.946978 5.206421 -1.587585
v -13.892000 -30.828400 -8.155380
vn 4.836444 0.394310 -3.513090
v -13.342500 -31.190100 -8.240170
vn -4.474487 2.496754 2.099883
v -14.273700 -31.143700 -8.018900
vn -4.427646 -0.528281 3.837002
v -13.887900 -31.241100 -7.506440
vn 0.008428 -3.439751 2.681798
v -13.348400 -31.553699 -7.171720
vn 3.961576 -3.198173 -1.442698
v -13.350200 -31.688000 -8.084160
vn 2.012496 -3.535770 0.548195
v -13.249400 -31.741400 -7.601260
vn 4.592059 -0.839884 -3.648048
v -13.682400 -31.613199 -8.621630
vn 1.830143 3.745637 -3.709947
v -14.286000 -31.379700 -9.076400
vn -2.576493 4.796838 -0.906685
v -14.334100 -31.134899 -8.582670
vn -4.701396 1.281787 2.999341
v -14.625800 -31.576000 -8.428310
vn -3.671353 -1.817294 4.134846
v -14.204400 -31.606800 -7.910270
vn -1.784420 -4.466959 3.369889
v -13.724300 -31.658600 -7.662440
vn 1.498855 -3.891051 1.506920
v -13.721100 -32.015999 -8.063260
vn 3.247290 -3.308743 -0.539790
v -13.852500 -32.142700 -8.606700
vn 4.343808 0.300651 -4.200469
v -14.132300 -31.748100 -9.097600
vn 2.488095 2.683105 -4.093897
v -14.576400 -31.633400 -9.464380
vn -2.018663 4.769006 -0.483906
v -14.754800 -31.388599 -9.076400
vn -3.618776 0.142259 4.536094
v -14.930000 -31.988800 -8.675640
vn -0.976536 -3.340210 4.117372
v -14.497000 -32.249100 -8.488090
vn -1.951624 -3.550039 3.766230
v -14.252900 -31.999599 -8.187870
vn 3.171794 -3.383037 -0.575638
v -14.160800 -32.389198 -8.915250
vn 4.512101 -0.807235 -4.171090
v -14.387300 -32.096600 -9.316740
vn 3.956679 -1.217814 -4.016756
v -14.749600 -32.209999 -9.681810
vn 1.134047 3.935680 -3.410618
v -14.846900 -31.630400 -9.588110
vn -3.142918 2.862653 1.515225
v -15.231800 -31.631001 -9.066280
vn -3.942669 -0.250827 3.855125
v -15.313800 -32.106602 -8.993360
vn -0.830246 -3.818316 2.412956
v -14.754800 -32.575401 -8.802390
vn 2.031063 -3.750344 -1.990665
v -14.531700 -32.567902 -9.284490
vn 4.053767 -2.967112 -2.384871
v -15.038800 -32.610100 -9.808360
vn 2.049227 1.981916 -3.945105
v -15.200700 -32.082699 -10.095100
vn 0.246478 -4.971247 1.651721
v -15.028200 -32.601501 -9.255140
vn -1.800009 4.119579 -1.250964
v -15.256100 -31.623400 -9.605820
vn -3.450224 2.824862 2.256007
v -15.753900 -32.038200 -9.508960
vn -2.785231 -2.220366 4.535436
v -15.501600 -32.483200 -9.267520
vn -0.134867 -4.174167 1.653244
v -15.681300 -32.977798 -9.766160
vn 3.629271 -2.729883 -3.535161
v -15.354900 -32.654099 -10.104100
vn 0.856003 -3.286757 0.447288
v -15.303700 -32.972000 -9.592760
vn 2.303396 1.849334 -4.676209
v -15.636300 -32.304798 -10.366500
vn -0.073362 4.427263 -1.475450
v -15.692400 -31.930599 -10.076400
vn -2.672712 3.641577 0.480215
v -16.166100 -32.103401 -10.089800
vn -4.167481 -0.737286 4.307045
v -15.887000 -32.473301 -9.623290
vn -0.068315 -4.026696 2.874650
v -16.104601 -33.103199 -10.062700
vn 3.549836 -3.545526 -2.250830
v -15.704700 -32.919201 -10.293900
vn -3.502077 -0.556286 4.768879
v -16.192600 -32.658501 -9.894140
vn 3.990019 0.353915 -4.374228
v -15.898900 -32.621300 -10.614600
vn 0.222550 4.552934 -2.258908
v -16.160601 -32.224899 -10.537100
vn -3.518723 2.136617 3.886056
v -16.527599 -32.522202 -10.182300
vn -2.569542 -2.387986 4.938763
v -16.535999 -33.056801 -10.253900
vn 1.451570 -2.344130 0.010885
v -16.153099 -33.518101 -10.570300
vn 4.874663 -1.938716 -2.921735
v -16.073999 -33.065399 -10.653900
vn 2.811828 1.952471 -4.014668
v -16.255800 -32.573601 -10.949600
vn -1.229537 4.832493 0.585568
v -16.629999 -32.292400 -10.576400
vn -3.245392 1.636285 4.453702
v -16.969200 -32.683300 -10.450000
vn -2.786829 -2.294886 4.910322
v -16.981100 -33.151199 -10.522900
vn -0.123194 -4.250922 1.715950
v -16.617100 -33.517899 -10.599000
vn 4.036220 -1.577255 -4.062806
v -16.422600 -33.126900 -11.040400
vn 1.470217 3.568797 -3.324533
v -16.691401 -32.492001 -11.158800
vn -2.233200 4.767286 1.015140
v -17.162001 -32.466400 -10.865700
vn -2.961471 0.382934 4.756454
v -17.456900 -32.949200 -10.722700
vn -1.325213 -3.440001 4.879648
v -17.149099 -33.442299 -10.864700
vn 2.696290 -3.786035 -0.953065
v -16.718800 -33.583302 -11.077700
vn 4.097037 -2.287864 -4.007339
v -16.955999 -33.415501 -11.409200
vn 3.625557 0.727764 -4.647672
v -16.775801 -32.953400 -11.379100
vn 0.490895 4.684730 -3.001786
v -17.182800 -32.596500 -11.377600
vn -2.673214 4.425266 1.679739
v -17.684500 -32.673000 -11.096100
vn -3.300235 1.758227 4.150448
v -18.047400 -33.088001 -11.081100
vn -1.627213 -1.570496 5.819753
v -17.625099 -33.409100 -10.961100
vn 1.761997 -3.181296 1.928192
v -17.214199 -33.923302 -11.076400
vn 3.039386 1.361100 -4.544698
v -17.199400 -33.042099 -11.739700
vn 4.633210 -2.333542 -3.093225
v -17.242901 -33.684700 -11.623100
vn -0.344799 4.791245 -2.588089
v -17.614500 -32.702801 -11.621600
vn -2.639406 5.136238 -0.155568
v -18.079500 -32.863098 -11.547300
vn -3.322746 4.311345 1.499743
v -18.496300 -33.097698 -11.620500
vn -3.548590 0.860956 4.771104
v -18.442900 -33.476898 -11.298600
vn -2.232953 -1.036684 5.653703
v -18.066299 -33.643600 -11.113900
vn -0.404796 -3.109990 4.436009
v -17.690599 -33.942902 -11.072300
vn 2.668688 -4.457754 -0.096364
v -17.496700 -34.123100 -11.497200
vn 3.639764 0.370750 -4.901362
v -17.506901 -33.382401 -11.957100
vn 0.942885 3.695431 -4.241920
v -17.800501 -33.019100 -11.984300
vn 4.645292 -1.697364 -3.327770
v -17.584600 -33.863701 -11.981700
vn -0.171852 4.818429 -3.006574
v -18.262600 -33.097900 -12.124800
vn -2.146684 5.324113 -0.290877
v -18.762100 -33.213402 -12.104300
vn -3.844032 2.220394 3.731248
v -18.856100 -33.507198 -11.627300
vn -2.564167 -1.390721 5.338442
v -18.582500 -33.993900 -11.430900
vn -0.448432 -3.769280 4.325718
v -18.102900 -34.139801 -11.327400
vn 3.922927 -4.397595 1.029319
v -17.867001 -34.287498 -11.792300
vn 3.415507 1.886933 -4.746412
v -17.936199 -33.541401 -12.288500
vn 5.177691 -0.698312 -2.186695
v -17.803499 -34.147499 -12.300800
vn 2.091633 4.272927 -3.530751
v -18.420500 -33.420200 -12.550800
vn -0.737044 3.719972 -0.316805
v -19.040100 -33.333599 -12.534900
vn -3.559566 3.817975 2.763484
v -19.212601 -33.521400 -12.045700
vn -3.467510 0.340119 5.067457
v -19.069201 -33.972599 -11.722700
vn -1.472127 -2.042333 5.530158
v -18.778601 -34.450100 -11.650900
vn 1.404709 -3.667483 4.293113
v -18.294399 -34.536701 -11.663500
vn 4.833594 -3.125668 1.434714
v -18.020300 -34.672100 -12.156400
vn 4.516668 2.305428 -3.570074
v -18.177000 -33.925900 -12.619900
vn 5.381238 -0.187978 -1.920329
v -17.952801 -34.430698 -12.663600
vn 2.089794 1.567734 -1.535021
v -18.452000 -33.894798 -13.051300
vn 0.820076 2.235990 -1.459702
v -18.772100 -33.510399 -12.886500
vn -1.016991 1.443256 0.664550
v -19.527100 -33.526001 -12.517000
vn -1.860070 0.956628 2.092825
v -19.529699 -33.938400 -12.055100
vn -1.497491 -0.361538 2.748205
v -19.282499 -34.425900 -11.878800
vn -0.409830 -0.919894 2.218439
v -19.001200 -34.859299 -11.861700
vn 1.175942 -2.035333 2.520283
v -18.502199 -34.967800 -11.943500
vn 2.017287 -1.371213 0.726678
v -18.231501 -35.095798 -12.369600
vn 2.525123 -0.861967 -0.470392
v -18.102400 -34.869701 -12.783700
vn 2.199161 0.696826 -1.190027
v -18.200100 -34.340199 -13.109800
# 196 vertices, 0 vertices normals

f 2//2 3//3 1//1
f 4//4 1//1 3//3
f 1//1 5//5 2//2
f 1//1 4//4 6//6
f 7//7 1//1 6//6
f 5//5 1//1 7//7
f 9//9 2//2 8//8
f 9//9 3//3 2//2
f 10//10 8//8 2//2
f 2//2 5//5 10//10
f 11//11 12//12 3//3
f 11//11 3//3 9//9
f 3//3 12//12 4//4
f 14//14 4//4 13//13
f 4//4 12//12 13//13
f 14//14 6//6 4//4
f 15//15 16//16 5//5
f 16//16 10//10 5//5
f 7//7 15//15 5//5
f 17//17 6//6 14//14
f 6//6 17//17 15//15
f 6//6 15//15 7//7
f 9//9 8//8 18//18
f 19//19 18//18 8//8
f 21//21 8//8 20//20
f 19//19 8//8 21//21
f 20//20 8//8 10//10
f 9//9 22//22 11//11
f 22//22 9//9 18//18
f 16//16 23//23 10//10
f 10//10 23//23 20//20
f 11//11 22//22 24//24
f 11//11 25//25 26//26
f 24//24 25//25 11//11
f 11//11 26//26 12//12
f 12//12 26//26 13//13
f 26//26 27//27 13//13
f 27//27 28//28 13//13
f 13//13 28//28 17//17
f 13//13 17//17 14//14
f 28//28 15//15 17//17
f 28//28 16//16 15//15
f 16//16 27//27 23//23
f 16//16 28//28 27//27
f 22//22 18//18 29//29
f 18//18 30//30 29//29
f 30//30 18//18 19//19
f 30//30 19//19 31//31
f 21//21 31//31 19//19
f 23//23 32//32 20//20
f 20//20 32//32 21//21
f 21//21 33//33 31//31
f 21//21 32//32 33//33
f 22//22 29//29 34//34
f 34//34 24//24 22//22
f 27//27 32//32 23//23
f 35//35 24//24 34//34
f 35//35 25//25 24//24
f 35//35 33//33 25//25
f 32//32 25//25 33//33
f 25//25 27//27 26//26
f 27//27 25//25 32//32
f 29//29 36//36 34//34
f 29//29 37//37 36//36
f 38//38 29//29 30//30
f 37//37 29//29 38//38
f 38//38 30//30 39//39
f 40//40 39//39 30//30
f 40//40 30//30 31//31
f 33//33 40//40 31//31
f 41//41 33//33 35//35
f 33//33 41//41 40//40
f 34//34 42//42 35//35
f 36//36 42//42 34//34
f 41//41 35//35 42//42
f 36//36 37//37 43//43
f 43//43 42//42 36//36
f 44//44 37//37 38//38
f 44//44 45//45 37//37
f 37//37 45//45 43//43
f 38//38 39//39 44//44
f 44//44 39//39 46//46
f 40//40 46//46 39//39
f 47//47 46//46 40//40
f 40//40 48//48 47//47
f 40//40 41//41 48//48
f 42//42 48//48 41//41
f 48//48 42//42 43//43
f 49//49 50//50 43//43
f 49//49 43//43 45//45
f 50//50 48//48 43//43
f 44//44 51//51 45//45
f 51//51 44//44 52//52
f 53//53 52//52 44//44
f 53//53 44//44 46//46
f 45//45 54//54 49//49
f 45//45 51//51 54//54
f 47//47 53//53 46//46
f 48//48 53//53 47//47
f 48//48 50//50 53//53
f 49//49 55//55 56//56
f 54//54 55//55 49//49
f 56//56 50//50 49//49
f 57//57 50//50 56//56
f 53//53 50//50 57//57
f 59//59 51//51 58//58
f 54//54 51//51 59//59
f 52//52 58//58 51//51
f 60//60 58//58 52//52
f 53//53 60//60 52//52
f 61//61 60//60 53//53
f 53//53 57//57 61//61
f 55//55 54//54 59//59
f 55//55 59//59 62//62
f 55//55 63//63 56//56
f 62//62 63//63 55//55
f 64//64 56//56 63//63
f 64//64 57//57 56//56
f 57//57 64//64 61//61
f 65//65 59//59 58//58
f 65//65 58//58 66//66
f 60//60 66//66 58//58
f 59//59 67//67 62//62
f 65//65 67//67 59//59
f 68//68 66//66 60//60
f 60//60 64//64 68//68
f 61//61 64//64 60//60
f 62//62 69//69 70//70
f 69//69 62//62 67//67
f 70//70 63//63 62//62
f 70//70 71//71 63//63
f 63//63 71//71 64//64
f 68//68 64//64 71//71
f 65//65 72//72 67//67
f 72//72 65//65 73//73
f 73//73 65//65 66//66
f 68//68 73//73 66//66
f 69//69 67//67 74//74
f 67//67 72//72 74//74
f 71//71 73//73 68//68
f 69//69 75//75 76//76
f 75//75 69//69 74//74
f 76//76 70//70 69//69
f 77//77 70//70 76//76
f 70//70 78//78 71//71
f 77//77 78//78 70//70
f 78//78 73//73 71//71
f 72//72 79//79 74//74
f 79//79 72//72 78//78
f 72//72 73//73 78//78
f 75//75 74//74 80//80
f 74//74 79//79 80//80
f 82//82 75//75 81//81
f 80//80 81//81 75//75
f 75//75 82//82 83//83
f 76//76 75//75 83//83
f 83//83 84//84 76//76
f 84//84 77//77 76//76
f 85//85 77//77 84//84
f 86//86 77//77 85//85
f 77//77 86//86 78//78
f 78//78 85//85 79//79
f 86//86 85//85 78//78
f 85//85 87//87 79//79
f 87//87 80//80 79//79
f 80//80 87//87 81//81
f 81//81 88//88 89//89
f 90//90 88//88 81//81
f 82//82 81//81 89//89
f 81//81 87//87 90//90
f 91//91 82//82 89//89
f 91//91 92//92 82//82
f 82//82 92//92 83//83
f 83//83 92//92 84//84
f 93//93 84//84 92//92
f 85//85 84//84 93//93
f 85//85 93//93 87//87
f 87//87 94//94 90//90
f 95//95 94//94 87//87
f 93//93 95//95 87//87
f 96//96 97//97 88//88
f 88//88 97//97 98//98
f 88//88 90//90 96//96
f 98//98 89//89 88//88
f 98//98 91//91 89//89
f 90//90 94//94 96//96
f 98//98 99//99 91//91
f 91//91 99//99 100//100
f 91//91 100//100 92//92
f 92//92 100//100 101//101
f 93//93 92//92 101//101
f 93//93 101//101 95//95
f 96//96 94//94 102//102
f 101//101 94//94 95//95
f 101//101 102//102 94//94
f 96//96 103//103 104//104
f 104//104 97//97 96//96
f 103//103 96//96 102//102
f 97//97 105//105 106//106
f 104//104 105//105 97//97
f 106//106 98//98 97//97
f 99//99 98//98 106//106
f 99//99 106//106 107//107
f 109//109 99//99 108//108
f 108//108 99//99 107//107
f 109//109 100//100 99//99
f 109//109 102//102 100//100
f 102//102 101//101 100//100
f 102//102 109//109 103//103
f 110//110 103//103 108//108
f 104//104 103//103 110//110
f 103//103 109//109 108//108
f 104//104 111//111 105//105
f 111//111 104//104 110//110
f 105//105 112//112 113//113
f 105//105 111//111 112//112
f 113//113 106//106 105//105
f 113//113 114//114 106//106
f 114//114 107//107 106//106
f 116//116 107//107 115//115
f 107//107 116//116 108//108
f 114//114 115//115 107//107
f 116//116 110//110 108//108
f 111//111 110//110 117//117
f 110//110 116//116 117//117
f 117//117 112//112 111//111
f 118//118 119//119 112//112
f 112//112 119//119 113//113
f 120//120 118//118 112//112
f 117//117 120//120 112//112
f 113//113 119//119 121//121
f 121//121 114//114 113//113
f 121//121 115//115 114//114
f 115//115 122//122 123//123
f 121//121 122//122 115//115
f 116//116 115//115 120//120
f 120//120 115//115 123//123
f 116//116 120//120 117//117
f 118//118 124//124 125//125
f 119//119 118//118 125//125
f 126//126 124//124 118//118
f 120//120 126//126 118//118
f 119//119 125//125 127//127
f 119//119 127//127 128//128
f 122//122 119//119 128//128
f 122//122 121//121 119//119
f 123//123 126//126 120//120
f 122//122 129//129 130//130
f 129//129 122//122 128//128
f 122//122 130//130 123//123
f 126//126 123//123 124//124
f 123//123 130//130 124//124
f 124//124 131//131 132//132
f 124//124 133//133 131//131
f 124//124 130//130 133//133
f 124//124 132//132 125//125
f 125//125 132//132 127//127
f 132//132 134//134 127//127
f 134//134 135//135 127//127
f 127//127 135//135 129//129
f 127//127 129//129 128//128
f 136//136 129//129 135//135
f 133//133 129//129 136//136
f 129//129 133//133 130//130
f 138//138 131//131 137//137
f 131//131 138//138 139//139
f 131//131 139//139 132//132
f 133//133 137//137 131//131
f 134//134 132//132 139//139
f 137//137 133//133 136//136
f 139//139 140//140 134//134
f 134//134 140//140 135//135
f 135//135 140//140 141//141
f 136//136 135//135 141//141
f 142//142 137//137 136//136
f 141//141 142//142 136//136
f 143//143 144//144 137//137
f 138//138 137//137 144//144
f 142//142 143//143 137//137
f 145//145 138//138 144//144
f 139//139 138//138 145//145
f 140//140 139//139 145//145
f 145//145 146//146 140//140
f 140//140 146//146 141//141
f 147//147 142//142 141//141
f 147//147 141//141 146//146
f 142//142 148//148 143//143
f 147//147 148//148 142//142
f 149//149 143//143 148//148
f 149//149 144//144 143//143
f 144//144 149//149 150//150
f 150//150 145//145 144//144
f 151//151 145//145 150//150
f 151//151 152//152 145//145
f 145//145 152//152 146//146
f 152//152 153//153 146//146
f 146//146 153//153 147//147
f 153//153 154//154 147//147
f 154//154 148//148 147//147
f 155//155 156//156 148//148
f 156//156 149//149 148//148
f 154//154 155//155 148//148
f 157//157 149//149 156//156
f 150//150 149//149 157//157
f 150//150 157//157 151//151
f 152//152 151//151 158//158
f 151//151 159//159 158//158
f 151//151 157//157 159//159
f 152//152 158//158 153//153
f 153//153 158//158 160//160
f 154//154 153//153 160//160
f 161//161 154//154 160//160
f 161//161 155//155 154//154
f 162//162 163//163 155//155
f 155//155 163//163 164//164
f 155//155 161//161 162//162
f 155//155 164//164 156//156
f 164//164 165//165 156//156
f 165//165 157//157 156//156
f 165//165 166//166 157//157
f 157//157 166//166 159//159
f 159//159 167//167 158//158
f 158//158 167//167 168//168
f 160//160 158//158 168//168
f 167//167 159//159 169//169
f 166//166 169//169 159//159
f 160//160 168//168 161//161
f 170//170 162//162 161//161
f 161//161 168//168 170//170
f 171//171 162//162 170//170
f 172//172 162//162 171//171
f 172//172 163//163 162//162
f 173//173 163//163 172//172
f 173//173 164//164 163//163
f 174//174 164//164 173//173
f 174//174 165//165 164//164
f 165//165 174//174 166//166
f 166//166 175//175 169//169
f 166//166 174//174 175//175
f 169//169 176//176 167//167
f 176//176 168//168 167//167
f 170//170 168//168 176//176
f 177//177 176//176 169//169
f 169//169 175//175 177//177
f 178//178 171//171 170//170
f 170//170 176//176 178//178
f 179//179 180//180 171//171
f 179//179 171//171 178//178
f 180//180 172//172 171//171
f 172//172 180//180 181//181
f 173//173 172//172 181//181
f 181//181 182//182 173//173
f 174//174 173//173 183//183
f 183//183 173//173 182//182
f 175//175 174//174 183//183
f 175//175 184//184 177//177
f 175//175 183//183 184//184
f 185//185 176//176 177//177
f 176//176 185//185 178//178
f 186//186 185//185 177//177
f 177//177 184//184 186//186
f 188//188 178//178 187//187
f 187//187 178//178 185//185
f 178//178 188//188 179//179
f 189//189 180//180 179//179
f 190//190 180//180 189//189
f 180//180 190//190 181//181
f 181//181 190//190 191//191
f 182//182 181//181 191//191
f 182//182 192//192 193//193
f 191//191 192//192 182//182
f 193//193 183//183 182//182
f 184//184 183//183 193//193
f 194//194 195//195 184//184
f 184//184 195//195 186//186
f 194//194 184//184 193//193
f 185//185 196//196 187//187
f 186//186 196//196 185//185
f 186//186 195//195 196//196
# 379 faces, 0 coords texture

# End of File
