####
#
# OBJ File Generated by Meshlab
#
####
# Object ArteryObjAN11-15.obj
#
# Vertices: 210
# Faces: 416
#
####
vn -3.259896 1.665773 4.921299
v -42.549599 -37.503101 14.632800
vn -3.481941 1.072608 4.925925
v -42.986099 -37.804001 14.426800
vn -2.056249 -0.877445 5.689671
v -42.604000 -37.992901 14.633100
vn -3.465372 3.244019 4.001527
v -42.891998 -37.359100 14.266700
vn -2.145874 -0.721730 5.372932
v -42.149101 -37.717899 14.890500
vn -2.690808 4.333347 2.803915
v -42.482899 -37.062099 14.396700
vn -2.587616 2.878735 4.542460
v -42.141998 -37.194500 14.762400
vn -3.795283 -0.677361 4.764942
v -43.308998 -38.096500 14.180400
vn -2.347667 -2.298263 4.004718
v -42.939098 -38.343498 14.477400
vn -3.631192 2.027706 4.604473
v -43.340199 -37.631599 14.074000
vn 0.369650 -3.759333 3.059947
v -42.440899 -38.518002 14.489500
vn -0.298004 -3.422891 5.112692
v -42.202801 -38.131500 14.644000
vn -2.521791 4.496282 2.972257
v -43.191898 -37.211399 13.886700
vn -1.721055 5.385264 0.747520
v -42.737202 -37.004501 13.933500
vn 0.187167 -4.695761 3.245050
v -41.757099 -38.144100 14.733600
vn -0.052687 -1.894456 4.703273
v -41.651699 -37.847900 15.034500
vn -1.231155 1.317485 5.756421
v -41.757801 -37.371498 14.980600
vn -1.230736 5.858115 -0.961316
v -42.223499 -36.921299 13.998600
vn -2.652128 5.276326 1.674356
v -41.982700 -36.869099 14.421200
vn -2.055913 3.724362 4.116324
v -41.666302 -36.874500 14.770900
vn -1.885673 -4.576618 3.317972
v -43.143200 -38.535000 14.039400
vn -3.984640 0.515967 4.622547
v -43.740299 -37.931499 13.855200
vn -3.108067 -2.180827 4.595242
v -43.609402 -38.379799 13.905000
vn -0.007671 -5.768228 1.150208
v -42.676300 -38.622601 14.088400
vn -3.540661 2.893461 4.131727
v -43.676498 -37.458000 13.718600
vn 2.593241 -5.244532 -0.630695
v -42.194000 -38.508999 14.001100
vn 2.230944 -5.375833 1.369501
v -41.939602 -38.338001 14.333000
vn -1.469009 5.137279 1.600057
v -43.450600 -37.094898 13.517100
vn 0.562165 5.495813 -1.682550
v -42.935200 -37.086601 13.432400
vn 0.667533 4.880309 -3.399692
v -42.408699 -37.092300 13.572500
vn 2.427154 -5.498428 -0.500487
v -41.463699 -38.153702 14.293500
vn 2.101990 -4.661180 2.425398
v -41.265202 -38.030300 14.706500
vn 0.954312 -1.516988 5.724051
v -41.265301 -37.611698 14.983300
vn -0.803352 1.645727 5.838935
v -41.341400 -37.122700 14.967600
vn 0.313188 3.895589 -4.616427
v -41.887600 -37.075901 13.663900
vn -2.249862 4.912064 -2.573821
v -41.715599 -36.758701 14.014500
vn -3.175353 4.982800 1.040655
v -41.516300 -36.565399 14.373100
vn -1.815550 4.001173 4.267344
v -41.208500 -36.596600 14.694500
vn -0.216702 -5.070915 1.625164
v -43.364799 -38.766899 13.653400
vn 1.365491 -5.605085 -0.738007
v -42.870998 -38.670300 13.626900
vn -4.413535 -1.033175 4.181458
v -44.070301 -38.171001 13.509900
vn -3.971546 1.570626 4.457117
v -44.066399 -37.691799 13.487700
vn -3.119611 -3.144439 2.760824
v -43.867500 -38.604099 13.612000
vn 2.338322 -4.848092 -2.279924
v -42.452999 -38.530399 13.621500
vn -2.114958 4.743816 2.529020
v -43.895199 -37.199200 13.276900
vn 3.222481 -3.677477 -3.728203
v -42.137100 -38.209400 13.544100
vn 3.080400 -4.848313 -2.328210
v -41.799198 -38.188900 13.897800
vn 0.935923 5.516222 -1.695510
v -43.392502 -37.122299 13.071300
vn 2.922650 3.497792 -4.095597
v -42.980598 -37.385899 13.002600
vn 2.353214 2.989113 -4.850482
v -42.544102 -37.414700 13.256400
vn 1.837919 1.841731 -5.568130
v -42.042000 -37.451401 13.430100
vn 3.061249 -3.752670 -3.569181
v -41.393700 -37.924301 13.863100
vn 2.852617 -5.048158 -1.505874
v -40.985600 -37.898102 14.258100
vn 2.374024 -4.219945 2.806012
v -40.845299 -37.790798 14.748200
vn 0.749714 -0.763827 5.673926
v -40.894402 -37.330101 15.025600
vn -0.470166 2.436021 5.465626
v -40.973900 -36.848701 14.932000
vn 1.823826 0.037123 -5.609721
v -41.502102 -37.434299 13.586300
vn -0.982841 2.491232 -5.545805
v -41.405998 -36.973400 13.761700
vn -3.819483 3.817909 -2.498648
v -41.235600 -36.428902 13.981700
vn -2.738300 4.417053 2.611983
v -41.036598 -36.251301 14.410700
vn -0.189598 3.215931 5.254508
v -40.660599 -36.503899 14.729500
vn 0.187619 -5.390262 -0.626199
v -43.574699 -38.800098 13.222700
vn 2.528744 -4.790390 -2.711947
v -43.070900 -38.595299 13.236400
vn 2.932217 -3.306917 -4.235262
v -42.615101 -38.284801 13.244800
vn -4.294167 0.004583 4.401507
v -44.492901 -37.894402 13.141400
vn -3.933972 -2.479232 3.970138
v -44.350899 -38.355598 13.156800
vn -2.409542 -4.927232 1.833867
v -44.012600 -38.662998 13.167800
vn -3.566930 2.647766 4.158187
v -44.321098 -37.446301 13.173900
vn 1.308260 5.533408 -1.200624
v -43.797600 -37.119801 12.750700
vn -1.432422 5.047254 1.802880
v -44.267300 -37.106499 12.856500
vn 2.875154 -0.677390 -5.269078
v -42.274700 -37.856602 13.269700
vn 2.833659 -2.010301 -4.695701
v -41.772301 -37.856098 13.517700
vn 3.194014 3.441267 -3.872435
v -43.395802 -37.402500 12.656200
vn 3.725759 0.279914 -4.705141
v -43.115898 -37.792599 12.703100
vn 3.323400 0.032200 -4.981951
v -42.697300 -37.824200 13.004200
vn 2.296603 -3.323318 -4.747528
v -41.111000 -37.599300 13.849800
vn 2.037740 -4.371920 -3.519335
v -40.663399 -37.561199 13.953400
vn 3.509461 -4.835849 -0.056648
v -40.507999 -37.640099 14.403000
vn 2.963926 -2.540730 3.639464
v -40.481800 -37.461700 14.846900
vn 1.834802 0.636257 5.469984
v -40.531601 -36.992802 14.935500
vn -0.171860 -1.736675 -5.777506
v -40.968102 -37.192699 13.671300
vn -3.203609 1.198423 -5.122036
v -41.050499 -36.699799 13.675600
vn -4.159184 2.316658 -3.946729
v -40.804401 -36.274101 13.631400
vn -3.411167 4.122949 -0.184463
v -40.878300 -35.978699 14.024000
vn -1.269458 4.033477 4.303705
v -40.569000 -36.082401 14.451500
vn 2.309959 0.318345 5.227562
v -40.184299 -36.801899 14.787200
vn 1.491318 2.327629 5.365945
v -40.161201 -36.380001 14.635200
vn 1.902552 -5.011605 -2.357747
v -43.812698 -38.645401 12.682300
vn 2.898057 -4.206990 -3.498465
v -43.400501 -38.540199 12.897900
vn 3.351917 -2.696640 -4.493933
v -43.012100 -38.211601 12.933600
vn -4.346814 -2.414057 3.670865
v -44.669899 -38.300598 12.825400
vn -4.425007 -0.367095 4.152769
v -44.909500 -37.878399 12.730700
vn -3.850299 2.462955 4.054335
v -44.690300 -37.464699 12.837600
vn -1.241904 -4.450214 0.915593
v -44.308701 -38.766899 12.808600
vn 1.827236 5.420958 -1.533584
v -44.161201 -37.132401 12.344300
vn 3.563595 3.197388 -3.746129
v -43.779301 -37.422401 12.304300
vn -1.637630 5.017350 1.625185
v -44.629601 -37.096901 12.508500
vn 3.908468 0.104256 -4.549353
v -43.520699 -37.820999 12.360500
vn 3.639472 -2.649207 -4.275484
v -43.421700 -38.212299 12.599400
vn 0.584265 -4.093160 -4.479433
v -40.473801 -37.183201 13.653900
vn 3.147209 -4.992787 -1.427366
v -40.220001 -37.359699 14.077600
vn 3.916076 -3.287736 2.713540
v -40.133999 -37.248100 14.571200
vn -2.474193 -1.239348 -5.234843
v -40.685398 -36.765499 13.441600
vn -4.342654 -0.085600 -4.054872
v -40.477402 -36.320400 13.238200
vn -4.331499 3.909172 -1.597780
v -40.515202 -35.846298 13.655900
vn -1.866099 4.829179 2.117256
v -40.396099 -35.735699 14.124800
vn 1.392066 3.399857 4.428178
v -40.070000 -35.983200 14.413300
vn 3.725831 -1.011163 3.944228
v -39.790401 -36.801201 14.541400
vn 3.625476 1.789002 4.520620
v -39.711899 -36.331501 14.374500
vn 1.539608 -4.983090 -2.882576
v -44.193699 -38.593700 12.322900
vn 3.498709 -2.999465 -4.061181
v -43.806301 -38.285999 12.295300
vn -4.158666 -3.510998 2.307277
v -44.981499 -38.317101 12.410800
vn -2.400759 -4.520154 0.331941
v -44.640400 -38.649700 12.487100
vn -4.530521 -0.915359 3.808810
v -45.260899 -37.861000 12.350700
vn -3.760639 2.717003 3.771391
v -45.073799 -37.416801 12.445000
vn 2.237181 4.900962 -1.831714
v -44.436798 -37.128300 11.918300
vn 4.064437 2.278580 -3.736225
v -44.107800 -37.469601 11.905100
vn 4.048512 -0.563832 -4.483403
v -43.912300 -37.885399 12.025400
vn -0.926620 5.712573 0.908924
v -44.834202 -37.075500 12.105600
vn -1.337115 -3.779397 -4.615211
v -40.250198 -36.805401 13.330300
vn 1.921822 -5.091423 -2.593042
v -39.991901 -37.091599 13.678500
vn 3.849820 -4.482121 0.583458
v -39.808300 -37.095501 14.150000
vn -2.951697 -3.598031 -3.889040
v -40.044399 -36.529999 12.955900
vn -5.117637 2.284923 -2.393912
v -40.349201 -35.835999 13.226100
vn -4.773035 -0.392071 -3.572315
v -40.173901 -36.100101 12.845300
vn -1.876294 4.320433 0.770472
v -40.156300 -35.416500 13.626400
vn -0.002680 4.531554 2.674981
v -40.070000 -35.552399 13.946200
vn 3.373423 3.485077 3.941052
v -39.610001 -35.975800 14.022800
vn 4.426103 -2.069530 2.399199
v -39.459801 -36.722301 14.152700
vn 4.513550 1.137348 3.746918
v -39.339802 -36.289200 13.999700
vn -0.675144 -4.886034 -2.291934
v -44.673801 -38.522598 12.021800
vn 2.810034 -3.412438 -4.218556
v -44.242901 -38.274502 11.944200
vn -3.019634 -4.532291 0.769001
v -45.167198 -38.323200 12.047600
vn -4.335315 -2.559361 3.159494
v -45.525101 -37.962002 11.957100
vn -4.254790 1.667727 3.760884
v -45.531799 -37.500401 12.010200
vn -2.496643 4.572028 2.093150
v -45.242401 -37.160301 12.021900
vn 1.476418 5.339656 -1.544128
v -44.873501 -37.101898 11.581700
vn 3.828804 1.906000 -4.005162
v -44.482700 -37.450699 11.522400
vn 3.681269 -1.405357 -4.557158
v -44.330799 -37.892200 11.657300
vn 0.604678 -5.441959 -2.537060
v -39.779499 -36.822701 13.271400
vn 3.539244 -5.043756 -0.569409
v -39.557098 -36.844700 13.711600
vn -3.386089 -3.902473 -3.283218
v -39.771400 -36.298599 12.527400
vn -0.017211 -5.029555 -2.561211
v -39.563599 -36.656399 12.824900
vn -3.060275 4.387138 -1.308851
v -40.097698 -35.463100 13.176400
vn -4.659012 3.131983 -2.569577
v -39.995998 -35.640701 12.807100
vn -5.092782 0.041062 -2.602776
v -39.942799 -35.908699 12.427500
vn 1.601731 5.394665 1.952681
v -39.501202 -35.415901 13.226400
vn 2.399086 4.808239 2.916884
v -39.659500 -35.517700 13.571600
vn 4.499486 2.025146 2.652565
v -39.134499 -35.980499 13.622700
vn 4.832529 -2.278802 1.393548
v -39.162201 -36.507301 13.675200
vn 1.608248 -4.583017 -3.512737
v -44.736099 -38.230801 11.642500
vn -0.977068 -5.468767 -0.612884
v -45.210602 -38.304901 11.634000
vn -4.630506 -1.656754 3.235539
v -45.891399 -37.730900 11.600000
vn -2.920056 -4.391975 1.021190
v -45.631401 -38.151901 11.572200
vn -3.040461 3.059626 3.689540
v -45.811001 -37.271801 11.626400
vn -0.745959 5.640872 1.352859
v -45.370098 -37.085602 11.588500
vn 2.821280 4.262062 -2.533303
v -45.230499 -37.160301 11.108600
vn 3.190594 1.675477 -4.100426
v -44.833698 -37.411701 11.175600
vn 3.451030 -2.113388 -4.502766
v -44.765598 -37.881802 11.312500
vn 3.302126 -5.027108 -0.488068
v -39.319901 -36.665199 13.262200
vn -5.555906 -0.023491 -1.523529
v -39.773201 -35.842098 12.024400
vn -2.722135 -4.702884 -1.666603
v -39.547699 -36.257999 12.040000
vn 0.869914 -5.559216 -2.091604
v -39.298698 -36.414398 12.459800
vn 3.812490 -4.039340 -0.494380
v -39.058800 -36.474098 12.881900
vn -0.988500 5.367500 -0.042981
v -39.601200 -35.304199 12.826400
vn -3.710221 4.387669 -1.501532
v -39.706799 -35.465599 12.442600
vn 4.141772 3.433803 2.827578
v -39.172298 -35.704201 13.322800
vn 3.187506 4.578528 2.159101
v -39.116100 -35.459999 12.889200
vn 5.454355 -1.270570 1.413274
v -38.991402 -36.246101 13.279300
vn 0.973969 -4.317002 -3.324159
v -45.221100 -38.137001 11.199600
vn -3.869879 -3.840479 1.307898
v -46.143902 -37.740601 11.153900
vn -2.228251 -4.303981 -1.309647
v -45.755001 -38.090900 11.173200
vn -3.557064 1.726031 3.291397
v -46.221500 -37.301201 11.282600
vn -0.753939 5.356712 1.032947
v -45.695599 -36.995399 11.226400
vn 2.908326 -1.475310 -4.967045
v -45.177799 -37.727001 10.977900
vn 3.299165 0.312988 -3.922187
v -45.391899 -37.397800 10.709800
vn 1.109255 4.419398 -1.560639
v -45.695599 -36.969200 10.826400
vn -4.186024 -2.401651 -2.284129
v -39.623199 -35.980301 11.553600
vn -3.166188 4.977017 -0.261330
v -39.532902 -35.407299 12.085300
vn -3.917320 3.058216 -0.765290
v -39.645401 -35.470600 11.682500
vn 0.165853 -4.820412 -2.049296
v -39.225700 -36.244099 11.622200
vn 2.384445 -5.378599 -0.864267
v -39.026699 -36.264000 12.083300
vn 4.808617 -3.176275 0.286322
v -38.851398 -36.174099 12.571800
vn 5.164228 0.531414 1.960629
v -38.849201 -35.905899 12.976400
vn 1.334147 5.363022 0.456060
v -39.132401 -35.301899 12.426400
vn 4.820080 2.295690 1.461016
v -38.774399 -35.624500 12.557000
vn 0.121831 -4.200660 -4.083084
v -45.695599 -37.828300 10.850800
vn -4.019444 -0.661293 2.413919
v -46.624599 -37.377201 10.805300
vn -1.372789 -5.086649 -1.507065
v -46.220600 -37.704800 10.703000
vn -0.082100 4.382552 1.511428
v -46.146000 -36.900002 10.836800
vn 2.186372 -0.260919 -4.201189
v -45.768200 -37.377201 10.456800
vn -0.589776 -3.400256 -3.609349
v -39.277401 -35.887600 11.150600
vn -4.054434 1.773791 -1.735803
v -39.549801 -35.530399 11.277900
vn 0.812719 5.841864 -0.022243
v -39.132401 -35.314098 12.026400
vn 0.647774 5.533678 -0.296881
v -39.132401 -35.305901 11.626400
vn 3.666014 -2.648047 -2.928815
v -38.925701 -35.944801 11.395500
vn 4.439445 -1.991907 -1.391705
v -38.737000 -35.995602 11.783300
vn 4.942605 -1.109483 0.188465
v -38.654499 -35.934101 12.224000
vn 4.565518 3.323295 -0.216103
v -38.791599 -35.501999 12.026400
vn -3.233536 -2.171686 -0.293130
v -46.736900 -37.460300 10.426400
vn -2.735221 3.037363 0.766536
v -46.651402 -36.896000 10.444200
vn 1.458693 -2.704340 -4.075717
v -46.164398 -37.473801 10.332300
vn 2.061636 3.343385 -2.054803
v -46.155300 -36.902802 10.418500
vn -1.304976 0.402483 -1.880344
v -39.395901 -35.501999 10.826400
vn 0.998333 0.564812 -2.152557
v -39.119701 -35.468300 10.815600
vn 3.848079 1.008144 -1.552715
v -38.866100 -35.501999 11.226400
vn 0.428326 5.092971 -0.744164
v -39.132401 -35.316299 11.226400
vn 4.895053 2.757828 -0.762128
v -38.848499 -35.501999 11.626400
vn -0.789959 -0.822322 -2.069042
v -46.633202 -37.377201 10.060700
vn -1.231807 1.954018 -1.846792
v -46.633202 -36.908401 10.209300
# 210 vertices, 0 vertices normals

f 1//1 2//2 3//3
f 4//4 2//2 1//1
f 1//1 3//3 5//5
f 4//4 1//1 6//6
f 1//1 7//7 6//6
f 5//5 7//7 1//1
f 2//2 8//8 9//9
f 4//4 10//10 2//2
f 10//10 8//8 2//2
f 2//2 9//9 3//3
f 12//12 3//3 11//11
f 3//3 9//9 11//11
f 3//3 12//12 5//5
f 10//10 4//4 13//13
f 13//13 4//4 14//14
f 4//4 6//6 14//14
f 15//15 5//5 12//12
f 16//16 5//5 15//15
f 5//5 17//17 7//7
f 17//17 5//5 16//16
f 14//14 6//6 18//18
f 6//6 19//19 18//18
f 7//7 19//19 6//6
f 7//7 20//20 19//19
f 20//20 7//7 17//17
f 9//9 8//8 21//21
f 22//22 23//23 8//8
f 22//22 8//8 10//10
f 8//8 23//23 21//21
f 9//9 21//21 24//24
f 9//9 24//24 11//11
f 10//10 25//25 22//22
f 10//10 13//13 25//25
f 11//11 24//24 26//26
f 11//11 26//26 27//27
f 27//27 12//12 11//11
f 27//27 15//15 12//12
f 25//25 13//13 28//28
f 28//28 13//13 29//29
f 13//13 14//14 29//29
f 30//30 14//14 18//18
f 29//29 14//14 30//30
f 15//15 31//31 32//32
f 15//15 27//27 31//31
f 16//16 15//15 32//32
f 17//17 16//16 33//33
f 33//33 16//16 32//32
f 34//34 20//20 17//17
f 34//34 17//17 33//33
f 18//18 35//35 30//30
f 18//18 36//36 35//35
f 36//36 18//18 19//19
f 36//36 19//19 37//37
f 19//19 20//20 37//37
f 38//38 37//37 20//20
f 38//38 20//20 34//34
f 21//21 39//39 40//40
f 21//21 40//40 24//24
f 21//21 23//23 39//39
f 41//41 23//23 22//22
f 42//42 41//41 22//22
f 42//42 22//22 25//25
f 39//39 23//23 43//43
f 23//23 41//41 43//43
f 24//24 40//40 44//44
f 24//24 44//44 26//26
f 42//42 25//25 45//45
f 25//25 28//28 45//45
f 44//44 46//46 26//26
f 46//46 47//47 26//26
f 27//27 26//26 47//47
f 47//47 31//31 27//27
f 45//45 28//28 48//48
f 48//48 28//28 29//29
f 48//48 29//29 49//49
f 30//30 50//50 29//29
f 50//50 49//49 29//29
f 51//51 30//30 35//35
f 51//51 50//50 30//30
f 52//52 31//31 47//47
f 52//52 53//53 31//31
f 32//32 31//31 53//53
f 32//32 53//53 54//54
f 54//54 33//33 32//32
f 33//33 54//54 55//55
f 34//34 33//33 55//55
f 56//56 34//34 55//55
f 38//38 34//34 56//56
f 57//57 51//51 35//35
f 35//35 58//58 57//57
f 36//36 58//58 35//35
f 58//58 36//36 59//59
f 36//36 37//37 59//59
f 60//60 59//59 37//37
f 37//37 38//38 60//60
f 61//61 60//60 38//38
f 61//61 38//38 56//56
f 62//62 63//63 39//39
f 39//39 43//43 62//62
f 63//63 40//40 39//39
f 63//63 64//64 40//40
f 64//64 44//44 40//40
f 42//42 65//65 41//41
f 65//65 66//66 41//41
f 41//41 67//67 43//43
f 41//41 66//66 67//67
f 65//65 42//42 68//68
f 68//68 42//42 45//45
f 43//43 67//67 62//62
f 46//46 44//44 64//64
f 70//70 45//45 69//69
f 68//68 45//45 70//70
f 69//69 45//45 48//48
f 64//64 71//71 46//46
f 72//72 46//46 71//71
f 46//46 72//72 47//47
f 47//47 72//72 52//52
f 69//69 48//48 73//73
f 49//49 73//73 48//48
f 49//49 74//74 73//73
f 49//49 75//75 74//74
f 50//50 75//75 49//49
f 71//71 50//50 51//51
f 71//71 75//75 50//50
f 57//57 72//72 51//51
f 51//51 72//72 71//71
f 57//57 52//52 72//72
f 52//52 57//57 76//76
f 76//76 53//53 52//52
f 78//78 53//53 77//77
f 53//53 76//76 77//77
f 53//53 78//78 54//54
f 78//78 79//79 54//54
f 54//54 79//79 55//55
f 80//80 55//55 79//79
f 56//56 55//55 80//80
f 80//80 61//61 56//56
f 57//57 81//81 76//76
f 58//58 81//81 57//57
f 81//81 58//58 82//82
f 59//59 82//82 58//58
f 59//59 83//83 82//82
f 59//59 84//84 83//83
f 60//60 84//84 59//59
f 85//85 84//84 60//60
f 85//85 60//60 61//61
f 61//61 86//86 87//87
f 87//87 85//85 61//61
f 86//86 61//61 80//80
f 89//89 62//62 88//88
f 88//88 62//62 67//67
f 62//62 89//89 63//63
f 64//64 63//63 90//90
f 63//63 89//89 90//90
f 75//75 64//64 90//90
f 64//64 75//75 71//71
f 65//65 91//91 66//66
f 92//92 91//91 65//65
f 92//92 65//65 93//93
f 65//65 68//68 93//93
f 94//94 66//66 91//91
f 94//94 67//67 66//66
f 88//88 67//67 94//94
f 93//93 68//68 70//70
f 95//95 70//70 69//69
f 95//95 69//69 96//96
f 73//73 96//96 69//69
f 97//97 70//70 95//95
f 93//93 70//70 97//97
f 73//73 98//98 96//96
f 98//98 73//73 74//74
f 99//99 98//98 74//74
f 74//74 90//90 99//99
f 75//75 90//90 74//74
f 77//77 76//76 81//81
f 77//77 81//81 100//100
f 101//101 77//77 100//100
f 78//78 77//77 101//101
f 79//79 78//78 102//102
f 102//102 78//78 101//101
f 80//80 79//79 102//102
f 80//80 102//102 86//86
f 100//100 81//81 103//103
f 82//82 103//103 81//81
f 82//82 83//83 103//103
f 103//103 83//83 104//104
f 105//105 104//104 83//83
f 83//83 84//84 105//105
f 106//106 105//105 84//84
f 84//84 85//85 106//106
f 107//107 106//106 85//85
f 107//107 85//85 87//87
f 108//108 86//86 102//102
f 108//108 87//87 86//86
f 108//108 109//109 87//87
f 109//109 107//107 87//87
f 88//88 110//110 111//111
f 94//94 110//110 88//88
f 111//111 99//99 88//88
f 89//89 88//88 99//99
f 99//99 90//90 89//89
f 112//112 113//113 91//91
f 91//91 113//113 94//94
f 91//91 92//92 112//112
f 112//112 92//92 114//114
f 92//92 93//93 115//115
f 92//92 115//115 114//114
f 115//115 93//93 97//97
f 94//94 113//113 110//110
f 116//116 97//97 95//95
f 96//96 117//117 95//95
f 95//95 117//117 116//116
f 96//96 118//118 117//117
f 118//118 96//96 98//98
f 115//115 97//97 119//119
f 119//119 97//97 116//116
f 111//111 118//118 98//98
f 98//98 99//99 111//111
f 121//121 100//100 120//120
f 120//120 100//100 103//103
f 101//101 100//100 121//121
f 102//102 101//101 122//122
f 122//122 101//101 121//121
f 122//122 108//108 102//102
f 104//104 120//120 103//103
f 104//104 123//123 120//120
f 125//125 104//104 124//124
f 123//123 104//104 125//125
f 104//104 105//105 124//124
f 124//124 105//105 126//126
f 127//127 126//126 105//105
f 106//106 127//127 105//105
f 127//127 106//106 107//107
f 107//107 109//109 128//128
f 128//128 127//127 107//107
f 122//122 129//129 108//108
f 109//109 108//108 129//129
f 130//130 109//109 129//129
f 130//130 128//128 109//109
f 110//110 131//131 132//132
f 113//113 131//131 110//110
f 132//132 111//111 110//110
f 118//118 111//111 132//132
f 131//131 112//112 133//133
f 131//131 113//113 112//112
f 114//114 133//133 112//112
f 134//134 133//133 114//114
f 114//114 115//115 135//135
f 134//134 114//114 135//135
f 135//135 115//115 136//136
f 136//136 115//115 119//119
f 116//116 137//137 119//119
f 138//138 137//137 116//116
f 117//117 138//138 116//116
f 139//139 117//117 118//118
f 139//139 138//138 117//117
f 132//132 139//139 118//118
f 137//137 136//136 119//119
f 120//120 123//123 140//140
f 140//140 121//121 120//120
f 141//141 121//121 140//140
f 121//121 141//141 122//122
f 141//141 129//129 122//122
f 123//123 142//142 143//143
f 125//125 142//142 123//123
f 123//123 143//143 140//140
f 144//144 145//145 124//124
f 124//124 145//145 125//125
f 124//124 126//126 144//144
f 125//125 146//146 142//142
f 125//125 145//145 146//146
f 126//126 147//147 144//144
f 148//148 147//147 126//126
f 148//148 126//126 127//127
f 127//127 128//128 148//148
f 128//128 130//130 149//149
f 149//149 148//148 128//128
f 150//150 129//129 141//141
f 150//150 130//130 129//129
f 130//130 150//150 149//149
f 132//132 131//131 151//151
f 133//133 151//151 131//131
f 151//151 139//139 132//132
f 133//133 152//152 151//151
f 134//134 152//152 133//133
f 153//153 154//154 134//134
f 154//154 152//152 134//134
f 134//134 135//135 153//153
f 153//153 135//135 155//155
f 155//155 135//135 156//156
f 135//135 136//136 156//156
f 156//156 136//136 137//137
f 137//137 157//157 156//156
f 158//158 157//157 137//137
f 138//138 158//158 137//137
f 159//159 138//138 139//139
f 159//159 158//158 138//138
f 139//139 151//151 159//159
f 140//140 143//143 160//160
f 141//141 140//140 160//160
f 141//141 160//160 150//150
f 162//162 142//142 161//161
f 161//161 142//142 146//146
f 142//142 162//162 163//163
f 163//163 143//143 142//142
f 164//164 143//143 163//163
f 160//160 143//143 164//164
f 165//165 144//144 147//147
f 145//145 144//144 165//165
f 146//146 145//145 166//166
f 165//165 166//166 145//145
f 161//161 146//146 166//166
f 168//168 147//147 167//167
f 147//147 168//168 165//165
f 148//148 167//167 147//147
f 148//148 149//149 167//167
f 149//149 150//150 169//169
f 169//169 167//167 149//149
f 169//169 150//150 160//160
f 170//170 151//151 152//152
f 170//170 159//159 151//151
f 170//170 152//152 154//154
f 172//172 153//153 171//171
f 172//172 154//154 153//153
f 155//155 173//173 153//153
f 173//173 171//171 153//153
f 170//170 154//154 172//172
f 173//173 155//155 174//174
f 174//174 155//155 156//156
f 174//174 156//156 157//157
f 175//175 176//176 157//157
f 177//177 174//174 157//157
f 177//177 157//157 176//176
f 175//175 157//157 158//158
f 159//159 175//175 158//158
f 159//159 170//170 175//175
f 160//160 164//164 169//169
f 178//178 162//162 161//161
f 180//180 161//161 179//179
f 178//178 161//161 180//180
f 179//179 161//161 166//166
f 162//162 178//178 181//181
f 162//162 181//181 182//182
f 163//163 162//162 182//182
f 163//163 182//182 183//183
f 183//183 164//164 163//163
f 183//183 184//184 164//164
f 169//169 164//164 184//184
f 185//185 165//165 168//168
f 166//166 165//165 185//185
f 179//179 166//166 185//185
f 168//168 167//167 184//184
f 184//184 167//167 169//169
f 184//184 186//186 168//168
f 185//185 168//168 186//186
f 175//175 170//170 187//187
f 187//187 170//170 172//172
f 171//171 187//187 172//172
f 189//189 171//171 188//188
f 188//188 171//171 173//173
f 187//187 171//171 189//189
f 173//173 190//190 188//188
f 177//177 173//173 174//174
f 177//177 190//190 173//173
f 187//187 176//176 175//175
f 176//176 187//187 191//191
f 176//176 191//191 177//177
f 177//177 191//191 190//190
f 178//178 192//192 181//181
f 193//193 178//178 180//180
f 178//178 193//193 192//192
f 195//195 179//179 194//194
f 180//180 179//179 195//195
f 194//194 179//179 185//185
f 193//193 180//180 195//195
f 181//181 192//192 196//196
f 181//181 196//196 197//197
f 181//181 197//197 182//182
f 197//197 198//198 182//182
f 183//183 182//182 198//198
f 183//183 198//198 186//186
f 184//184 183//183 186//186
f 194//194 185//185 199//199
f 199//199 185//185 186//186
f 186//186 198//198 199//199
f 191//191 187//187 189//189
f 189//189 188//188 200//200
f 188//188 201//201 200//200
f 201//201 188//188 190//190
f 189//189 200//200 202//202
f 202//202 191//191 189//189
f 190//190 191//191 203//203
f 201//201 190//190 203//203
f 202//202 203//203 191//191
f 204//204 192//192 193//193
f 205//205 192//192 204//204
f 205//205 206//206 192//192
f 196//196 192//192 206//206
f 207//207 204//204 193//193
f 207//207 193//193 195//195
f 195//195 194//194 199//199
f 207//207 195//195 208//208
f 195//195 199//199 208//208
f 208//208 196//196 206//206
f 197//197 196//196 208//208
f 199//199 197//197 208//208
f 199//199 198//198 197//197
f 202//202 200//200 209//209
f 210//210 200//200 201//201
f 210//210 209//209 200//200
f 203//203 210//210 201//201
f 209//209 203//203 202//202
f 209//209 210//210 203//203
f 207//207 205//205 204//204
f 205//205 207//207 206//206
f 207//207 208//208 206//206
# 416 faces, 0 coords texture

# End of File
